<?xml version="1.0" encoding="utf-8"?>
<!-- Generator: Adobe Illustrator 20.0.0, SVG Export Plug-In . SVG Version: 6.00 Build 0)  -->
<svg version="1.1" id="Layer_2" xmlns="http://www.w3.org/2000/svg" xmlns:xlink="http://www.w3.org/1999/xlink" x="0px" y="0px"
	 viewBox="0 0 434.3 560" style="enable-background:new 0 0 434.3 560;" xml:space="preserve">
<style type="text/css">
	.st0{fill:#AD5C11;stroke:#000000;stroke-width:6;stroke-miterlimit:10;}
	.st1{fill:none;stroke:#000000;stroke-width:6;stroke-miterlimit:10;}
	.st2{fill:#835712;stroke:#000000;stroke-width:6;stroke-miterlimit:10;}
	.st3{fill:none;}
	.st4{fill:#321908;stroke:#000000;stroke-width:6;stroke-miterlimit:10;}
	.st5{opacity:0.38;}
	.st6{fill:#C7B299;}
	.st7{opacity:0.42;fill:#D9D3CE;}
	.st8{fill:#AE7418;stroke:#000000;stroke-width:6;stroke-miterlimit:10;}
	.st9{fill:#42210B;stroke:#000000;stroke-width:6;stroke-miterlimit:10;}
	.st10{fill:#241002;stroke:#000000;stroke-width:6;stroke-miterlimit:10;}
	.st11{opacity:0.42;}
	.st12{fill:#F14950;}
	.st13{fill:#00FFFF;}
	.st14{fill:#FCEE21;}
	.st15{fill:#FFFFFF;}
</style>
<g>
	<g>
		<path d="M-452.7-161.1c1.9,0,1.9-3,0-3C-454.6-164.1-454.6-161.1-452.7-161.1L-452.7-161.1z"/>
	</g>
</g>
<g>
	<path class="st0" d="M227.4,462.5c4.8-5.3,1-14.8-0.8-22.7c-7.1-31.2,15.2-47.9,5.9-60.6c-7.3-10-30.3-12.4-44.6,0
		c-16.4,14.2-12.9,40.5-2.5,49.6c8.4,7.3,19.1,1.7,25.2,10.1c6.6,9-1.2,22.1,5,26.1C218.9,467.1,224.6,465.6,227.4,462.5z"/>
	<path class="st0" d="M90.3,379.2c0,30,26.8,39.9,23.6,68.1c-1.9,16.4-12.1,22.8-7.6,31.1c6.2,11.6,33.5,13.6,39.5,4.2
		c6.4-10-16.7-23.9-14.3-47.5c2.4-23.3,26.7-26.5,28.6-47.5c2.3-24.7-27.6-55.4-47.1-50.5C99.4,340.6,90.3,361.7,90.3,379.2z"/>
	<path class="st1" d="M287.2,137.6c0.1-14.8,8.8-22.5,10.9-50.9c2.3-29.3-3.6-64.3-14.5-66.2c-21.1-6.8-27.3,12.5-50.9,46.8
		C263.8,75.5,279,108.2,287.2,137.6z"/>
	<path class="st2" d="M317.2,287.5c-4.9-19.7-18-30.6-16.7-55.5c0.9-16.9,7.2-18.4,6.8-34.2c-0.6-23.1-14.4-27.6-19-50.2
		c-0.8-3.8-1.1-7-1.1-10c-8.2-29.4-23.4-62.1-54.5-70.3c-0.3,0.4-0.5,0.8-0.8,1.1c-9.9-2.3-16.2,4.8-21.3,5.3
		c-10.7-8.4-18.1,3.1-22.8,1.5c-15.1-5.1-17-21.3-39.6-36.5c-7-4.7-10.5-7.1-13.7-6.1c-13.4,4-18,52.4-6.8,91.3
		c1.5,5.2,4.1,9.1,6.4,13.2c0.7-2.3,1.6-4.4,2.7-6.3c1.5-2.3,5.3-4.6,7.6-7.6c15.2-15.2,16.7-40.3,38-49.4
		c-21.3,9.1-22.8,34.2-38,49.4c-2.3,3-6.1,5.3-7.6,7.6c-1.1,1.9-2,4.1-2.7,6.3c2.5,4.4,4.5,9,4.2,15.7
		c-0.9,18.2-13.6,25.6-12.2,39.6c1.4,13.1,7.6,25.5,18.7,36c7,1.9,12,7.6,15.6,13.4c14.5,23.6,20.5,47.2,32,71.5
		c1.5,3,4.6,6.1,6.1,9.1c3.8,12.2,6.8,24.3,12.9,36.5c2.3,3.8,9.1,6.8,12.9,6.1c14.5-3,25.9-16,28.9-32c3.8-17.5,0.8-35,9.1-51.7
		c9.9-20.5,25.9-36.5,38-55.5c-12.2,19-28.1,35-38,55.5c-8.4,16.7-5.3,34.2-9.1,51.7c-3,16-14.5,28.9-28.9,32
		c-3.8,0.8-10.7-2.3-12.9-6.1c-6.1-12.2-9.1-24.3-12.9-36.5c-1.5-3-4.6-6.1-6.1-9.1c-11.4-24.3-17.5-47.9-32-71.5
		c-3.6-5.8-8.6-11.5-15.6-13.4c1.3,1.3,2.7,2.5,4.1,3.7c0,0-13.3,30.3-24.1,48.6c-7.6,12.9-35,23.7-45.9,40.2
		c-20.2-5.3-16-24.8-22.1-23.6c-13.7,2.8-19,36.5,17.5,55.5c43.3,76.1,175,71.3,219.8,14.5C297.5,363.5,326.7,325.5,317.2,287.5z"/>
	<path class="st2" d="M287.2,137.6c0.1-14.8,8.8-22.5,10.9-50.9c2.3-29.3-3.6-64.3-14.5-66.2c-21.1-6.8-27.3,12.5-50.9,46.8
		C263.8,75.5,279,108.2,287.2,137.6z"/>
	<path class="st3" d="M79.1,321c11.4-28.9,44-32.1,50.2-45.6"/>
	<path class="st4" d="M175.5,124.3c-1.7-3.4,4.1-13.6,12-12.6c5.5,0.7,9.9,6.5,8.9,9.9C194.7,127.2,177.6,128.7,175.5,124.3z"/>
	<path class="st4" d="M237.7,120.6c-1.5-4.2,5-12.5,12-12c4.8,0.3,9.9,4.8,9.4,8.9c-0.4,3.4-4.6,5.2-5.8,5.8
		C247.6,125.8,239.1,124.5,237.7,120.6z"/>
	<g class="st5">
		<path class="st6" d="M100.6,385.4c-1.8-13,6.6-26.7,19-31c3.4-1.2,7-1.7,10.5-0.9c4.7,1.1,8.5,4.4,12.6,7
			c15,9.3,34.5,7.4,51.1,1.6s32-15.1,48.8-20.2c11.5-3.5,26.1-4.1,33.2,5.6c3.2,4.4,4.1,10,6,15.2c1.6,4.4,3.9,8.7,3.3,13.3
			c-1,8.2-10.2,12.3-18,14.8c-21.8,7.1-43.7,14.3-66.5,16.7c-10.3,1.1-20.7,1.2-30.9,0.2c-24.2-2.3-47.9-10.8-68-24.5"/>
	</g>
	<path class="st7" d="M133.6,173.9c1.5-9.1,19.9-21.1,29.5-25.5c7.9-3.7,12.3,3.3,21.9,0c10.2-3.6,8.8-12.8,20.2-18.5
		c6.6-3.3,16.7-4.9,24.4-0.8c8.3,4.4,6.9,11.6,14.3,14.3c9,3.3,15.4-5.8,22.7-2.5c7.2,3.2,28.3,17.3,29.2,26.5
		c2.1,21.3-31.6,26.6-27.1,37.4c6,14.3,20.7,43.2,7,44.7c-18.9,2.1-9.1,116.9-46.8,116.9c-48.1,0-17.9-109.7-63.2-121.2
		c-14.9-3.8-4.8-27.8-7.1-44.2C157.1,191,132.4,180.8,133.6,173.9z"/>
	<path class="st8" d="M304,306c10.1,5-7.5,39.3-10.1,115.3c-1.5,44.4-2.3,66.6,3.4,81.6c3.6,9.4,9.6,21.5,4.2,28.6
		c-5.2,6.9-19.4,7.2-28.6,1.7c-16.1-9.6-14.5-35.3-14.3-37.9c1.4-18.4,11.6-22.2,10.1-36.2c-1.5-14.1-12.5-15.9-20.2-30.3
		c-15.9-29.6,5.3-69.3,10.1-78.2C270.6,328,294.5,301.3,304,306z"/>
	<path class="st8" d="M161.2,450.4c5,28.3,1.2,38.8,0,41.8c-4.9,12.4-13.2,18.5-11.7,30.2c0.8,6.2,4.3,14,10.9,16.8
		c10,4.3,24.1-4,29.4-14.3c5.7-11.1-2-18.4-2.5-39.5c-0.4-14.5,3.1-17.1,8.4-42.9c5.5-26.8,8.3-40.2,6.7-54.7
		c-2.9-27.6-18-46.8-29.4-61.4c-6.5-8.3-32-40.8-43.7-35.3c-11.9,5.5-5,47.4,0.8,69.8C140,398.8,153.9,408.9,161.2,450.4z"/>
	<path class="st9" d="M174.2,161.3c4.9-5.4,8.7,31.2,41.8,8.4c48.3,22.9,37.7-23.2,44.9-18.3c7.4,5.1,1.2,30.5-10.7,38
		c-6.3,4-14.7-0.4-16.7-1.5c-3.4,12.2-22.1,15.6-32.7,2.3c-5.4,1.6-10.4,1.5-12.9,1.2C175.3,190.3,168.8,167.2,174.2,161.3z"/>
	<g>
		<path class="st10" d="M222.3,159.4h-8c-6.3,0-11.4-5.1-11.4-11.4v0c0-6.3,5.1-11.4,11.4-11.4h8c6.3,0,11.4,5.1,11.4,11.4v0
			C233.7,154.3,228.6,159.4,222.3,159.4z"/>
		<circle class="st1" cx="225.3" cy="150.7" r="2.7"/>
		<circle class="st1" cx="212.8" cy="151" r="2.7"/>
	</g>
	<g class="st11">
		<path class="st6" d="M144.3,125.9c-7.4-11.4-11.2-25.2-10.6-38.8c0.2-4.3,0.8-8.6,1.4-12.9c0.7-4.9,1.4-9.9,2.1-14.8
			c0.1-1.1,0.3-2.2,1.2-2.9c1.6-1.4,4.1,0.1,5.6,1.7c5.9,5.9,11.4,12.4,16.2,19.3c2.3,3.4,4.6,7,4.9,11.1c0.5,6.4-3.9,12-7.9,16.9
			c-4.1,4.9-8.2,9.8-12.2,14.7"/>
	</g>
	<g class="st11">
		<path class="st6" d="M249.8,79.7c9-13.4,20.3-24.9,33.1-33.7c1.8,11.6,2.9,23.4,3,35.2c0.1,8.9-0.4,18.6-5.4,25.6
			c-0.5,0.6-1,1.3-1.6,1.6c-2.5,1.1-4.3-2.7-5.1-5.6c-3-11.2-10.7-20.7-20.5-25.2"/>
	</g>
	<g>
		<g>
			<path d="M251.3,141.9c1.8-4.5,6.4-7.7,11.3-7.4c5.6,0.4,10,5.4,8.8,11c-2.2,10.4-16.3,10-19,0.2c-0.5-1.9-3.4-1.1-2.9,0.8
				c3.7,13.5,23.7,12.7,25.1-1.8c0.6-6.5-4.3-12.2-10.7-13.1c-6.8-1-13,3.3-15.5,9.5C247.7,142.9,250.6,143.7,251.3,141.9
				L251.3,141.9z"/>
		</g>
	</g>
	<g>
		<g>
			<path d="M177.8,147.2c-5.3-4.8-14.7-9.7-22-7.1c-7.2,2.5-3.7,11.9-1.4,16.7c2.6,5.5,7.7,11.9,14.6,9.9c6.8-1.9,8.8-10.2,9.7-16.3
				c0.3-1.9-2.6-2.7-2.9-0.8c-0.6,4-1.4,8.5-4.1,11.7c-4.7,5.6-10.6,1.2-13.5-3.7c-1.2-2-2.1-4.1-2.8-6.3c-1.4-4.2-1.5-7.5,3.7-8.8
				c5.4-1.3,12.9,3.3,16.6,6.7C177.1,150.6,179.2,148.5,177.8,147.2L177.8,147.2z"/>
		</g>
	</g>
	<g>
		<path class="st12" d="M48.7,151.1c2-11.5,4-23.1,6-34.6c0.1-0.5,0.2-0.9,0.5-1.3c0.8-0.9,2.4-0.2,3.3,0.7c3,3.1,3.7,7.8,4.9,12
			c1.2,4.2,3.7,8.7,8,9.5c3.5,0.6,6.8-1.5,10-3.2c7-3.7,15-5.4,22.8-4.8c0.8,0.1,1.6,0.2,2.1,0.7c0.9,1,0.2,2.6-0.6,3.7
			c-2.9,4.3-6.2,8.2-9.9,11.8c-1.5,1.4-3.1,3-3.3,5c-0.1,1.4,0.5,2.8,1.1,4c4.3,8.2,11.9,15.5,12,24.8c-9.4-3.3-18.7-6.7-28.1-10
			c-0.1,7.2-0.1,14.3-0.2,21.5c0,2.1-0.6,4.8-2.7,4.9c-1,0.1-2-0.7-2.7-1.4c-6-5.5-10.6-12.6-12.9-20.4c-9.4-0.6-18.8-1.2-28.2-1.8
			c-3.1-0.2-7-1-7.8-4c-0.5-2.1,0.8-4.2,2.2-5.9c5.6-7,13-12.5,21.3-15.9"/>
		<g>
			<path d="M50.1,151.5c1.3-7.7,2.7-15.4,4-23.1c0.2-1.2,1.2-11.3,2-11.5c3.1-1,4.8,8.1,5.3,9.9c1.1,4.1,2.8,8.7,6.7,10.9
				c4.5,2.6,9.1,0.2,13.2-2c3.4-1.8,6.9-3.2,10.6-4c2.6-0.6,9.6-2.5,11.5,0.1c1.5,2-0.5,3.3-2,5.1c-1.2,1.5-2.4,3-3.8,4.4
				c-1.9,2-4.4,3.9-5.7,6.3c-2.4,4.4,0.8,8.7,3.2,12.3c3.9,6,8.6,11.8,9,19.3c0.6-0.5,1.3-1,1.9-1.4c-9.4-3.3-18.7-6.7-28.1-10
				c-0.9-0.3-1.9,0.5-1.9,1.4c0,3.9-0.1,7.8-0.1,11.7c0,2,0,3.9-0.1,5.9c0,1.3,0,2.6,0,3.9c0.4,1.9-0.3,2.4-2.1,1.6
				c-3.5,0.1-6.7-5.5-8.3-8.1c-2.1-3.4-3.7-6.9-4.9-10.7c-0.2-0.7-0.8-1.1-1.4-1.1c-5.3-0.3-10.6-0.7-16-1c-2.8-0.2-5.6-0.4-8.5-0.6
				c-2.3-0.1-5.9,0.2-7.9-1.1c-1.9-1.3-1.4-4.7-0.3-6.5c0.6-1,1.6-2,2.5-2.9c1.6-1.7,3.4-3.4,5.2-4.9c4-3.3,8.5-5.8,13.2-7.9
				c1.8-0.8,0.2-3.3-1.5-2.6c-6.4,2.8-12.3,6.6-17.3,11.5c-3.1,3-8.7,8.2-6.4,13.1c1.9,3.8,7,3.9,10.7,4.2
				c8.8,0.6,17.5,1.1,26.3,1.7c-0.5-0.4-1-0.7-1.4-1.1c1.7,5.3,4.2,10.3,7.6,14.8c2,2.6,5.9,8.4,9.7,8.1c2.9-0.3,3.8-3.4,4-5.9
				c0.6-7.3,0.2-14.8,0.2-22c-0.6,0.5-1.3,1-1.9,1.4c9.4,3.3,18.7,6.7,28.1,10c0.9,0.3,1.9-0.5,1.9-1.4c-0.4-6.7-3.6-12-7.2-17.5
				c-2.6-4-7.4-8.9-4.2-14.1c1.9-3.1,5.7-5.8,8-8.7c2-2.5,7.2-8.3,2.3-10.8c-2.3-1.1-6.3-0.5-8.7-0.3c-3.5,0.3-7,1-10.3,2.2
				c-3.3,1.1-6.2,2.8-9.3,4.3c-6.1,3-10.4,0.7-12.6-5.6c-1.6-4.5-2-12.4-7-14.9c-5.8-2.9-5.7,6.9-6.2,10c-1.6,9-3.1,17.9-4.7,26.9
				C46.9,152.6,49.8,153.4,50.1,151.5L50.1,151.5z"/>
		</g>
	</g>
	<g>
		<path class="st13" d="M299.2,52.1c5.1-2.7,10.3-5.3,15.4-8c1.3-0.7,2.8-1.3,4-0.6c1,0.6,1.3,2,1.5,3.2c1.2,7.4,1.8,14.9,1.9,22.5
			c0,2.1,0,4.3,0.7,6.2c2.4,6.5,11.1,8.3,14.7,14.3c-8.1,1.8-17.3,4.4-21.2,11.7c-4.5,8.4,0.1,18.8-1.8,28.2
			c-6.2-2.5-11.3-7.3-14.2-13.3"/>
		<g>
			<path d="M300,53.4c3.4-1.8,6.8-3.5,10.3-5.3c1.4-0.7,2.8-1.8,4.3-2.2c1.2-0.8,2.5-0.8,4,0c0.1,0.4,0.2,0.8,0.2,1.2
				c1.1,1.5,0.7,5.1,0.9,7.1c0.2,1.9,0.4,3.7,0.5,5.6c0.2,3.4,0.3,6.8,0.4,10.2c0.1,4.3,1,7.8,4.2,10.8c3.6,3.5,8.5,5.4,11.4,9.6
				c0.3-0.7,0.6-1.5,0.9-2.2c-7.7,1.8-16.8,4.1-21.4,11.2c-5.8,8.9-1.1,20-2.6,29.7c0.7-0.3,1.5-0.6,2.2-0.9
				c-6.1-2.6-10.6-6.9-13.7-12.8c-0.9-1.7-3.5-0.2-2.6,1.5c3.2,6.3,8.2,11,14.7,13.9c0.8,0.3,2,0.2,2.2-0.9
				c1.3-8.3-1.9-17.2,0.6-25.3c2.9-9.1,13.1-11.7,21.3-13.5c0.9-0.2,1.4-1.4,0.9-2.2c-3.2-4.7-8.5-6.6-12.3-10.6
				c-2.9-3.1-2.8-6.9-2.9-11c-0.1-4.4-0.4-8.8-0.9-13.1c-0.4-3.7,0.2-11.8-4.9-12.4c-2.5-0.3-5.2,1.8-7.3,2.8c-4,2.1-8,4.1-12,6.2
				C296.8,51.7,298.3,54.3,300,53.4L300,53.4z"/>
		</g>
	</g>
	<g>
		<path class="st14" d="M355.6,199.3c-1.2-8.9,0.8-18.2,5.6-25.9c6.2,3.5,7.1,13,13.5,16.2c2.7,1.4,6,1.3,9,1
			c9.8-0.7,19.5-2.2,29-4.6c1.7,7.3-12.3,10.1-11.9,17.6c0.1,1.7,0.9,3.2,1.8,4.6c3.2,5.6,6.4,11.2,9.6,16.8
			c-6.7-1.5-13.5-2.7-20.3-3.7c-1.8-0.3-3.7-0.5-5.2,0.5c-1.4,0.9-2.1,2.6-2.6,4.2c-2.9,8.1-5.7,16.3-8.6,24.4
			c-5.5-4.3-9.2-10.7-10.3-17.5c-0.4-2.4-0.6-5.2-2.5-6.8c-1.2-1-2.8-1.3-4.3-1.6c-6-1.1-11.9-2.1-17.9-3.2
			c-2.2-0.4-5.1-1.5-4.9-3.8c0.1-1.2,1.1-2.1,2-2.8c6.1-5.2,12.6-10,19.3-14.3"/>
		<g>
			<path d="M357.1,199.3c-1-8.9,0.8-17.4,5.4-25.1c-0.7,0.2-1.4,0.4-2.1,0.5c7.2,4.6,7.4,15.4,16.9,17.3c5.5,1.1,11.8-0.3,17.3-1
				c6.2-0.8,12.4-2,18.4-3.5c-0.6-0.3-1.2-0.7-1.8-1c0.8,5.9-9.5,9.1-11.4,14.2c-1.1,3,0,5.7,1.4,8.4c3.1,5.7,6.4,11.2,9.6,16.8
				c0.6-0.7,1.1-1.5,1.7-2.2c-5.8-1.3-11.6-2.4-17.5-3.3c-3-0.5-6.8-1.5-9.5,0.5c-3,2.2-3.8,7.3-5,10.5c-2.2,6.3-4.4,12.5-6.6,18.8
				c0.8-0.2,1.7-0.4,2.5-0.7c-5.3-4.4-8.6-10.1-9.9-16.9c-1.1-5.9-2.5-8.4-8.7-9.6c-3.6-0.7-7.2-1.3-10.7-1.9c-2.1-0.4-11-0.8-9-4.8
				c1.3-2.5,7.5-6.1,9.5-7.6c3.2-2.4,6.5-4.7,9.9-6.9c1.6-1.1,0.1-3.7-1.5-2.6c-4.1,2.7-8.2,5.5-12.1,8.5c-2.7,2.1-6.2,4.2-8.4,6.8
				c-3.2,3.9-0.3,7.1,3.9,8.2c4.3,1.1,8.8,1.6,13.1,2.3c2.1,0.4,5,0.4,6.9,1.3c4.1,1.9,3.7,4.5,4.3,7.7c1.4,6.9,5.1,13,10.6,17.5
				c0.9,0.7,2.1,0.5,2.5-0.7c2.8-8.1,5.4-16.4,8.6-24.4c2.8-7.3,20.3-1.3,26.3,0c1.3,0.3,2.4-1,1.7-2.2c-2.9-5-5.8-10-8.6-15.1
				c-1.6-2.8-3.5-5.7-1.4-8.8c0.9-1.3,2.1-2.3,3.3-3.3c3.8-3.1,8.3-6,7.5-11.5c-0.1-0.8-1.1-1.2-1.8-1c-5.4,1.3-10.8,2.4-16.2,3.2
				c-5.6,0.8-12.7,2.4-18.3,1.2c-8.2-1.8-9.1-12.6-15.8-16.8c-0.7-0.4-1.7-0.1-2.1,0.5c-4.8,8.1-6.8,17.2-5.8,26.6
				C354.3,201.2,357.3,201.3,357.1,199.3L357.1,199.3z"/>
		</g>
	</g>
</g>
<ellipse transform="matrix(0.9692 -0.2465 0.2465 0.9692 -23.6552 49.4813)" class="st15" cx="185.9" cy="119.2" rx="6" ry="6"/>
<ellipse transform="matrix(0.9692 -0.2465 0.2465 0.9692 -21.0189 65.1797)" class="st15" cx="249.9" cy="116.6" rx="6" ry="6"/>
</svg>
